<?xml version="1.0" encoding="utf-8"?>
<!-- Generator: Adobe Illustrator 18.0.0, SVG Export Plug-In . SVG Version: 6.00 Build 0)  -->
<!DOCTYPE svg PUBLIC "-//W3C//DTD SVG 1.1//EN" "http://www.w3.org/Graphics/SVG/1.1/DTD/svg11.dtd">

	<svg version="1.1" id="Capa_1" xmlns="http://www.w3.org/2000/svg" xmlns:xlink="http://www.w3.org/1999/xlink" x="0px" y="0px" viewBox="0 0 254.5 244" enable-background="new 0 0 254.5 244" xml:space="preserve">

		<a id="AS">
			<path class="department" title="RAAS" fill="#A8AEB8" stroke-width="2" stroke="#FFF" d="	M216.6,223.2l-1.7-4.6l-0.8-1.6l0.2-1.6l-0.5-1.2l-0.6-1.8l-0.4-3.8v-1.9l0.2-1.5l0.6-1.7
				l0.7-0.5l0.5-0.8l0.8-0.6l1,0.1l0.6-1.1l0.8-1.2v-1.2l1.3-2.8l1.6-0.5l0.6,0.4l1.8-2.4l1.7,0.6l0.3-1l-0.6-1.7l-0.2-1.3l0.2-0.6
				l-0.5-0.9l-0.4-1.9l-0.1-1.3l-0.6-1.5l-1-3.7l-0.6-1l-0.6-1.2l-0.1-1.9V174l0.3-1l0.8-0.9l1-0.6l0.3-0.4v-1l-0.1-0.8l0.1-1.6
				l-0.5-1.9l-0.1-1.2l0.5-2.1l0.1-2l0.1-1.5l1-1.8l0.5-1.4l0.5-1.2l0.9-1l0.7-0.7l-0.5-0.8l0.7-0.4l0.2-0.5l1.7-0.6l1.7-0.1l1.9,0.6
				l0.6-0.1l0.4-1.5l0.2-2.4l-0.4-1.5l-0.9-0.7l-0.5-0.5l-0.4-1.6l-0.7-1.5l-0.3-1.6l-0.1-2.4l0.6-5.9l1.2-7l0.7-1.7l-0.4-0.3l-0.1-0.7
				l-0.4-1.5l-1.4-4.9l-1.1-0.3l-3.2,0.1h-0.9l-10.3-6.8l1.9-3.8l-0.9-0.6h-1.4l-0.9-1l-2.3,0.1l-9-1.2l-1.8-0.9l-3.9,0.2l-1.7,0.4
				l-1.9,1.5l-1-0.6l-0.1-0.5l-1,0.3l-1.2-0.3l-1.2,1.5l-12.7,0.6l-2.7,0.2l-7.9,1.1l-3.3,4.6l-2.7,0.1l-1.4,0.8l-1.2,2.1l-5.5-0.2
				l-2.4-0.6l-2.7,2.4l-2.8,1.9l-0.6,2.3l-1-0.4l-0.5-0.8l-1,1.2l-1.2,2l1.7,2.4l-0.5,3.2l0.8,0.9l-0.1,0.8l4,0.1l1.1-0.3l1.9,1.1
				l1,1.6l1.2,0.8l1.7,2.8l0.1,2.4l1,0.8l1.2,1.7l2.1,1.5l-0.1,1.1l2.4,4.3l1.5,0.1l-1.6,4.2l0.6,1.7l1.4,1.6l2.6,4.4l-0.9,1.6l1.7,5.6
				l1.2,1.4l0.7,6.3l0.6,0.9l2.3,0.4l5.8,2.7l0.2,1.5l0.8,0.4l-0.5,1.7L173,180l1.7,4.8l0.9,0.3l-0.6,2.8l1.7,3.1l0.2,0.9l-1.7,2.5
				l-0.3,2.4l0.5,2.5v2.4l1.1,1.2l2.9,0.3l2.1,1.7l4.7,2.1l0.7,1.2l-0.6,1.6l0.6,1.4l6.1,2.9l3.5,4.6l2.8,1l0.3-0.3l1.5,0.6l1.1-0.6
				l0.4,1.5l0.8,0.8l1.2,0.1l2.3-0.6l0.1-0.6l1.2,0.8l0.7-0.6l1.2-0.1l1-0.8l-0.1,1.7l0.3,1.5l1.4,1.1l0.1-0.6L216.6,223.2L216.6,223.2
				z" />
		</a>

		<a id="MT">
				<path class="department" title="Matagalpa" fill="#A8AEB8" stroke-width="2" stroke="#FFF" d="M97.9,143.7l-1.6-0.8h-0.8l-2.4-1.1l-1.8-2.3l-1.5-0.5l-0.9,0.3l-3.3-2.3l-2.3,0.2l-1.8-0.6
				l0.5-1.6l-0.2-2.5l0.4-1.5l-0.2-8.7l0.8-0.9l3.7-1.5l1.3-0.1l1.5-3.1l-0.1-0.6l1.5-1.4l1.2,0.6h0.8l0.8-0.3l1.2,0.5l0.2,1.5l2.4,0.1
				v-0.8l0.7-0.1l2.8,0.2l7.2-6.5l1.4-0.2l1.7-2.7l3.5-2.8l2.8-5.2l3.2-0.4l3.5-2.6l1,2.9l1.9,2.4l1.1,1.5l1.5,1.2l1.5,1.8l0.8,0.7
				l2-0.5l0.4,0.7l0.8,0.9l0.8,0.1l0.1,0.7l1.1,0.8l0.8,0.3l2.6-1.2l0.7,1.1l0.9-0.5l0.3-1l0.7-0.1l0.5,0.8l0.4-0.2l0.2-0.9l1.2-0.3
				l0.8-0.1l1.6,1.6l-1.1,0.9l-1.2,0.5l-0.1,1l0.8,1.4l0.3,0.8l-0.8,0.8l-1.1,0.9l-1,0.5l-0.4,1.9l-0.8-0.2l-0.7-1l-1.1,1.2l-0.5,1.2
				l-0.8,1l1.8,2l-0.3,2l-0.1,1.1l0.8,1.3v1h3.5l-0.8,1.1l-1.1,1.8l0.5,1.2l-0.9,0.2l-0.3,1.2h-0.8l0.5,2.3l-1.5-0.2l-0.5,1.1l-1.3,0.4
				l-2.8-1.8l-0.3-1.2l-1-0.3l-0.8,0.5l-0.8-1.2l-1.8-0.2l-1.8-1.7l-0.8-0.4l-0.8,1.8l-1.6,1.5l-2.5-1.3l-1.4,0.4l-0.6-0.1l-0.8,0.5
				l-1,1.2l-1.5,0.7l-0.6,0.2l-0.4-0.2l-1.3,0.6h-0.9l-0.5,0.5l-1.3-0.7l-3.2,1l-6.4,0.2l-0.8,0.4l-0.3,1.3v1.4l-0.2,0.6l-2.1,1
				l-1.4,1.1L97.9,143.7L97.9,143.7z" />
		</a>

		<a id="MD">
				<path class="department" title="Madriz" fill="#A8AEB8" stroke-width="2" stroke="#FFF" d="M58.7,104.7l0.5-2.8l-1.2-5.5L56.7,96l-0.2-0.8l1-1.8L56.9,91L56,86.7l-0.9-1l0.2-3.3l1.2-1.2
				l2.3,0.4l2.8,0.3l0.8,0.7l-0.1,1.2l0.9,1.2l1.4,0.2l1,0.2l0.4,0.3l2.1-1.1l2.5-0.3l2.8,0.6l1.9,0.2l1.2,0.7l0.8-0.7l1.4,0.2l2.2-1.6
				l2-0.5l2.3,0.7l0.8-0.2l0.8-0.1l0.8-0.2l1.8,1.6l1.6,1.3l0.4,1.6l2.2,1.7l-0.9,0.9l-0.4,1.5l-1.5,1.2L87,93.1l-2.4,2.8l-0.8-2.3
				l-3.2-0.7l-8.2,1.9l-4.6-1.7l-1.5,0.5l-4.1,7.8L58.7,104.7L58.7,104.7z" />
		</a>
		
		<a id="CO">
				<path class="department" title="Chontales" fill="#A8AEB8" stroke-width="2" stroke="#FFF" d="M114.2,168.3l1,0.6v0.6h1.6l1.1-0.7l0.8,0.3l0.8,0.1l1.2,1l1.3,1.7l0.8,1.5l0.8,0.6v0.6
				l3.3,3.9l0.6,0.3l0.2-0.9l0.9-0.4l2.3,0.7l0.4-0.3l0.7,0.7l1.2,0.8l1.2,1l0.6,1.2l1.5,1.6l1.2,0.1l1,1.1l1.5-0.4l0.8,2l0.7,0.5
				l-0.1,0.6l1.6,0.9l-0.1,0.6l0.8,0.8l0.6,0.7l0.2,1.2l0.3-0.5l1.2,0.8l1.7-2.4l0.8-0.3l1.6,0.5l1.5-1.8l1.3-0.4l0.1-1.7l1-1.4h1.4
				l1-0.5l1.3-0.1l0.3-1.2l2.3-1.9l3.3-0.4l1.2,0.1l0.7-0.8h1.2l1.7,0.5l1.2,0.1l3.3,0.3l2.4-0.3l0.2-1.7l-0.6-0.3l-0.3-1.5l-6.2-2.6
				l-1.7-0.6l-0.7-0.7l-0.8-6.4l-1.2-1.4l-0.8-3.2l-0.9-2.5l1.1-1.7l-0.9-1.2l-1.7-2.8l-1.7-1.8l-0.3-1.6l0.6-1.7l0.6-1.9l0.4-0.6
				l-1.4-0.1l-0.9-1.2l-1-2.5l-0.6-0.9l-0.1-1l-2.1-1.5l-1.5-2.2l-3.3,5.7l0.1,3.1l-2.3,3.1l-1.3,0.3l-0.5,0.6l-1.1,0.3l-1.2-0.6
				l-2.9,1.2l-3,3l-2.1,0.6l-0.8-0.5l-1.7,1.1l-5.3,0.8l-1-0.8l-1,0.8l-0.9-0.5l-3.2,0.1l-1,0.4l-1.2,1.2l-0.6,4.1l-2,1l-0.1,2.5
				l-2,3.7L114.2,168.3L114.2,168.3z" />
		</a>

		<a id="RI">
				<path class="department" title="Rivas" fill="#A8AEB8" stroke-width="2" stroke="#FFF" d="M142.4,221.5l-1.5,2.7L132,220l-3.3-0.1l-5.7-2l-2.5-2.6l-2.9-0.4l-4.4,7.7l-0.6,0.1l-0.7-0.6l-1.6-0.2
				l-0.3-0.6l-0.3,0l-0.5-0.4l-1.1-0.2l-1-0.8v-0.8l-0.6-1.4l-1.6-2.7l-1.8-1.6v-0.5l-0.7-0.3l0-0.5l-0.5-0.1l-0.9-1.7l-1-0.3
				l-0.9-1.1l-1.7-0.9l-0.9,0.1l-0.6-1.1l-1.1-0.6l-0.2-0.6l-0.8-1l-0.9-0.3l-0.9-1.6l-2.7-1.7h-0.7l-0.7-0.5l-0.5-0.9l-0.1-1.3
				l0.3-0.3L88,197l-0.2-0.5l0.8-0.5l0.2-0.9l1.7-1.6l1.2,0.4l1.4-0.7h2.1l0.4-1.2l0.8-0.8h0.7l1.1,0.3l0.7-0.5l1-0.2l1.9-0.5
				l0.5-0.3l0.9,0.7l-0.2-0.7l0-1l0.5,0l0.5,0.7l-0.3,0.2l0.5,4l-0.7-0.5c0,0-0.6-1-0.2,0c0.4,1.1,0.6,1.5,0.6,1.5l0.5,0l0.3-0.7
				l1.8,3.2l1.4,2.7l-0.1,1.5l0.5,1.5l0.1,1.3l0.7,0.7l0,0.7l1.1,1l0.9,1.6l1.1,0.5l1.2,1.5l0.5,0.8l1.5,0.6l2.1,1.8l0.3-0.5h0.7
				l1.5,0.8l0.5-0.4l1.3,0.9l0.1,0.7l1,0.7l0.3,0.4l0.6,0l1.3,0.8l0.6-0.2l1.5,1.2l1.4,0.1l0.7,0.2l1.6,0l1.3,0.2l0.7,0.5l1.3,0
				l1.9,1.5l1,0.5l1.2,0l2.1,0.8l0.6-0.7l0.6-0.2L142.4,221.5L142.4,221.5z"/>
		</a>

		<!-- Isla -->
		<polygon fill="#A8AEB8" points="111.9,198.8 112.4,197.9 112.9,197 113.1,195.9 115.2,194.6 116.1,194.6 116.6,194.4 
		117.4,194.6 118.3,194.6 119,194.8 119.3,194.8 119.7,195.4 120.2,195.4 120.6,196.5 120.6,197.6 121,198.5 121.3,199.3 
		121.5,199.7 123.4,199.7 124.2,199.5 124.7,199.8 125.6,199.5 125.8,200.5 126.1,201 126.6,202.4 126.3,203.9 125.3,204.2 
		124.7,204.7 123.9,204.9 122.6,205 121.7,204.5 120.4,202.7 120.2,202.3 120.2,201.8 120.5,201 120.4,200.5 119.8,200.4 
		119.2,200.1 118.6,200.1 118.1,200.4 117.4,200.1 117.3,200.6 116.8,201 116.4,200.6 115.4,200.5 115,200.6 113.5,200.3 
		111.9,198.8       "/>
		<!-- End Isla -->

		<a id="CI">
				<path class="department" title="Chinandega" fill="#A8AEB8" stroke-width="2" stroke="#FFF" d="M35.5,146.7l0-0.1l-0.6,0.4l-0.7-0.4l0.1-0.4l0.7,0.1l-0.9-0.4l-0.4-0.4l1.1-0.1l0.2-0.1
				l-0.2-0.5l-1.3,0.2l0.5-0.5l-0.2-0.5l-0.4-0.6l-0.3,0.7l-0.9-0.5l-0.6-0.6l-1.1-0.8l-0.6-0.4l0.7,1l0.9,0.6l1,1.1l0.8,0.1l0.2,0.9
				l-0.3,0.4l-0.5-0.1l-0.7-1l-1.5-2L29,142l0.1-0.6l-1.5-0.5l-1.3-0.8l0.4,0v-0.5l-0.7-0.4l-0.5-0.6l0.5,1l-0.5-0.2l-0.9-0.8l-0.8-0.2
				c0,0-0.3-0.8,0.1-0.6c0.4,0.2,1.2,0.3,1.2,0.3l-0.1-0.4l-0.6-0.1l0.1-0.5l0.9,0l0.1-0.5l-0.5,0.1l0.1-0.5l0.6-0.1l-0.7-0.5l-0.2,0.6
				l-0.5,0l0,0.4l-0.4,0.7l-0.4,0.2l-0.6-0.2l-0.3-0.2l-0.5-1.1l-1.8-2.3l-0.6-0.4l-0.7-0.7l-0.6-0.7l-0.4-0.7l-0.8-0.7l-1.1-0.6l1-0.2
				l0.2,0.5l0.6,0.3l1,0.1l-0.5-0.3l-0.5-0.7l-0.6-0.1l0.3-0.5l0.6-0.4l-0.5-0.2l-0.4,0.5l-0.6-0.7l0-0.6l-0.6-0.5l-0.1,0.6l-0.5-0.1
				l-0.5-1l-0.1-0.4l0.3-1l-0.3-0.6l-0.4-0.1l-0.7,0.4l0,0.4l0.9,1.3l-0.5-0.4l-1.4-0.9l0.4,0.7l0.5,0.3l0,0.5l2.1,1.9v0.5l-0.9-0.7
				l-1.5-1.1l-2.5-1.5l-1.4-0.7l-1.1-1l-1-0.5l-2.3-1.9l-0.3-1l0.4-1.7l0.4-0.7l0.9-1.3l1.3-0.4l1.3-1l0.8-1.4l0.5-1.8l0.7-0.3
				l-0.2,0.5l-0.2,0.6l-0.3,0.5l1.2,0.2l1.2,0.5l1.8,1.4l1.4,1.4l0.4,1.1l-0.5-0.1l-0.3,0.4l-0.1,0l1.1,1.4h0.8l1.3,0.8l1.2,0.4
				l1.6-1.2l0.4-0.7l2-0.7l0.6-0.2l0.6-0.5l0.5-0.9l0.7,0.2c0,0,9.2-0.6,9.3-0.6c0.1,0,3-0.1,3-0.1l1.3,0.8l1,0l0.5-1.3l0.8,0.1
				l0.8-0.9l1.1,0l0.5-1.8l1.2-1.6v-1.9l0.5-1.2l0.5-1l-0.2-1.3l1.1-3.8l1.7-1.3l0.6-1.2l1.9-0.4l0.8,0l2.7,1.8l1.1,0.1l1.8-1.4
				l0.7-1.2l-0.6-2.7l0.9,3l0.4,1.9l-0.5,2.1l-0.2,0.9l-1.7,1.6l-0.9,1.8l-0.2,1.9l0.7,1.9l1.1,2v1.5l1,1l1.8,2.7l-0.5,2.4l0.6,2.4
				l0.5,1.7l-0.4,1.6l-0.7,1.7l-1,0.9l-1.3,0.5h-2l-1.6,0.1l-1.7,0.3l-0.2,0.8l0.1,0.8l-0.3,0.6l-0.5,0.2l-1,0.8l-0.6,0.3l-0.5,0.1
				l-0.9,1.2l-0.8,1.3l-0.8,0.9l-1.2,0.8l-0.2,0.4l0.2,1.2l-0.3,1.3l-0.4,1.3l-0.5,0.5l-1.8,1l-1.4,0.5l-0.7,0.1l-0.8,0.8l-0.7,0.6
				l-1.4,0.2l-1.5-0.1h-0.9V146.7z" />
		</a>

		<a id="JI">
				<path class="department" title="Jinotega" fill="#A8AEB8" stroke-width="2" stroke="#FFF" d="M123.6,96.5l-3.3,2.5l-3.3,0.4l-2.6,5.1l-3.5,2.9l-1.8,2.9h-1.4l-6.9,6.4h-3.5l-0.1,0.5h-2.2
				l-0.4-1.3l-1-0.7l-1.1,0.2l-1.6-0.5l-0.2-1.5l-0.9-0.5l-2.8-1.1l-1.5-1.2l-1.8-2.5l-1.2-0.9l-0.2-0.6l1.5-2.1l-0.2-0.6l0.5-0.5
				l-0.3-4.7l0.3-0.4l-0.2-0.8l0.3-0.3l-0.1-0.9l3.2-3.1l3.7,0.4l1.3-1.3l0.4-1.5l0.7-0.7l2.5-0.3l0.2-1.1l4.5,2.2v0.7l0.9-0.2l0.2,0.5
				l0.5-1.4l1.2-1.2h1.5l0.9-0.9l0.8,0.6v-0.3l-0.7-0.8l1.2-1.2l-1-0.7l0.5-1l-0.7-1.8l0.5-0.6l0.3-2.5l1.4-3l-0.4-0.8l0.5-0.8
				l-0.5-1.1l1.1-2l0.5-0.2l1.2,0.2l0.8-1.2l0.5-1.1l-0.7-1.2l-0.4-0.8l-0.1-2.7l1-1.2l0.8-0.4h0.5l0.7,0.5l0.8-0.3l0.3-0.8l0.5-0.8
				l1-0.2l2.3-1l1.4-1.3l2.2,0.5l1.2-0.2l0.9-1.6l2.8-1.7l1.8-0.3l1-1.5l0.6-1.5l0.8-1.5l-0.1-2l0.2-1.2L133,48l1.9-0.2h2.1l2.4-0.2
				l1.8-0.5l1.4-1.5v-1.3l-1.5-1.5l-0.1-1.2l1.1-2.1l0.5-2.2l1.2-1.3l0.7-1.4v-2.9l2.2-0.4l1.3-0.8l1.4-1.4v-1.5l-1-1l1.9,2.5l1.4,0.6
				l0.6,0.5l-0.2,0.8l-0.4,0.8l-0.3,1.1l0.2,0.8l0.2,0.8l1.3,0.6l0.4,0.6l-0.2,0.9l-0.6,0.3l0.3,2.2l-0.5,0.8l-0.6,0.8l1.2,0.8l0.2,0.6
				l0.9,1l1,0.8l0.9,0.2l5.2,0.2l-2.1,10.8l0.7,3l-11.2,18.1l-5.4-2.5l-7.4,4.6l-4.4,0.2l-0.8,3.3l-1.2,0.6l-0.7,0.8l0.9,1.4l0.9,0.7
				v1.4l-0.8,1.6v1.5l-0.7,1.1l-1.4,0.3l-2.2,1.7l-1.5,1.1l-0.6,1.2L123.6,96.5L123.6,96.5z" />
		</a>
		
		<a id="CA">
				<path class="department" title="Carazo" fill="#A8AEB8" stroke-width="2" stroke="#FFF" d="M72.9,187l0.3-0.5l0.3,0L73,185l-0.1-0.2l0.8-1.2l1.5-0.6l1.4-1.1l0-0.9l4.6-6.6l0.2-0.2
				l1.5,0.7l3.3,1l0.6,1.5l1.6,0.6l-0.8,1.7l0.8,0.2l-0.3,0.7l1.4-0.3l1.2,0.6l1-0.1l0.3,0.5l-0.5,0.3l0.1,1.1l-0.2,0.1l0.5,1.9
				l-0.4,1.1l0.1,0.9l-0.2,0.5l-1.6,0.5l-0.2,0.1l-0.1,0.5l0.3,1.5l-0.3,1.1l0.2,0.6l1,1.6l-1,1.1l-0.6,0.5l-0.5,1l-0.5,0.4l0.2,0.6
				l-0.6,0.7l-0.1,0.3l-0.5,0.3L86,197l-0.4-0.4l-0.9-0.5l-0.9-0.5l-0.5-0.3l-0.4-0.5l-1.1-0.4l-2.2-1.2l-1.1-0.6l-0.9-0.5l-0.1-0.5
				l-0.5-0.4l-0.6-0.8l-0.4-0.6l-1.2-1l-1-0.9L72.9,187L72.9,187z" />
		</a>
		
		<a id="MY">
				<path class="department" title="Masaya" fill="#A8AEB8" stroke-width="2" stroke="#FFF" d="M81.4,174.3l1.4,0.7l3.3,1l0.6,1.4l1.6,0.5l-0.5,1.2l-0.2,0.5l0.7,0.2l-0.2,0.7l1.5-0.1
				l1.2,0.5l1-0.1l0.2,0.5l0.7-1.2l0.5-1.7l1-1.3l-0.5-0.5l0.1-1.3l1.3-0.9l1,0.5l2.6-3.6l0.2-2.5l-0.3-0.1l-0.2-0.7l0.5-0.3l-0.2-0.3
				l-0.7,0.3l-0.2-0.5l0.5-0.2l-0.7-0.3l-0.2-0.2l-0.5-1.8l-0.4-0.4l-1.7-0.2l-1.1,0.5l-2.6,0l-0.3,0.2l-1.5,1.7l-1.8,0.3l-1.3,1.8
				l0.5,1l1,0.6l0.4,0.8l-1,1.7l-2.4,0.9l-1.9-1.4L81.4,174.3L81.4,174.3z" />
		</a>
		
		<a id="BO">
				<path class="department" title="Boaco" fill="#A8AEB8" stroke-width="2" stroke="#FFF" d="M107.2,165.2l0.7,0.4l0.2-0.8h0.4l0.1,0.9l1.1,0.5l1.1,0.6l0.9,0.1l0.4-0.1l0.4,0.7l0.5,0.2
				l0.2,0.3l0.5,0.3h0.4l0.2-0.5l-0.1-0.5l0.5-0.9l1.6-2.7v-2.4l2.2-1l0.2-2.8l0.3-1.5l1-1.1l0.9-0.5l1.6-0.1l1.1,0.1l0.9-0.1l1,0.3
				l0.8-0.6h0.3l1,0.7l6.1-1.1l1.1-0.8l0.6,0.4l1.6-0.5l0.9-1l1.1-0.9l1.2-1.2l2.2-0.9l1.3-0.2l0.6,0.4l1-0.4l0.3-0.4l1.3-0.1l2.4-3.3
				l-0.1-2.9l1.6-2.4l1.8-3.4l-0.8-0.6l-0.1-2.3l-1.4-2.6l-1.5-1l-1-1.3l-1.8-1.1l-1.4,0.4l-0.5,0.8l-1,1.6l-0.2,0.9l0.5,0.7l-0.9,0.2
				l-0.5,1l-0.7,0.2l0.4,1.5l0.1,0.6l-0.8,0.1l-0.7,0.1l-0.2,1h-0.8l-0.9,0.4l-1-1l-1.1-0.7l-0.8-0.2l-0.2-1.2l-1.2-0.4l-0.5,0.5
				l-0.9-1l-1.8-0.4l-1.5-1.4l-1-0.4l-0.9,1.8l-1.5,1.3l-1.8-1.1l-1.1-0.2l-0.9,0.7l-0.9-0.2l-0.9,0.6l-0.8,1.2l-1.3,0.4l-0.5,0.5
				l-0.7-0.4l-0.6,0.5L116,136l-0.8-0.1l-0.5,0.3l-0.9-0.5l-0.7-0.1l-1.4,0.3l-1.5,0.6l-2.8,0.1l-2.7,0.2l-1.4,0.4l-0.4,1.1l0.1,1.2
				l-0.2,0.9l-2.4,1.2l-1.3,1l-1.1,1.4v1.8l0.1,0.9l0.3,0.9l1.2,0.8l0.5,1.1l0.9,0.5v0.5l1.1,0.2l-1.2,1.2l-0.3,1.4l5.9,5.1l-1.2,1.1
				l-0.2,1l0.4,0.3l-0.5,0.9l0.3,0.9l-0.1,1.4l0.2,0.5l1.6,0.1L107.2,165.2L107.2,165.2z" />
		</a>
		
		<a id="AN">
				<path class="department" title="RAAN" fill="#A8AEB8" stroke-width="2" stroke="#FFF" d="M148.2,76.4l-5-2.5l-7.4,4.6l-4.5,0.1l-0.8,3.5l-1.3,0.6l-0.8,0.8l0.9,1.5l1.1,0.7l0.1,1.3
				l-0.9,1.6v1.8l-0.8,1.1l-1.5,0.1l-3,2.5l-1.2,0.9v0.9l1.8,3.6l2.9,4l2.1,1.7l1.9,2l2.2-0.7l0.9,1.4l1,0.4l0.4,1.3l1.9,0.6l2.1-1.3
				l1,1.2l0.8-0.5l0.2-0.8l0.7-0.2l0.9,0.8l0.4-0.9l2.3-0.7l1.4,1.6l-0.8,0.9l-1.2,0.6l-0.4,0.3l0.1,1.1l1.1,1.6l2.6-2l2.7,0.6l5.3,0.2
				l1.3-2.4l1.3-0.7h2.5l3.2-4.4l23.6-2.2l0.8-1.4l1.8,0.6l0.6-0.6l0.3,0.6l1.1,0.8l1.3-1.7l6.2-0.7l1.7,1.1l9.5,1.3l2-0.2l0.9,1.1
				l1.5-0.1l0.9,0.8l-2,3.9l10.3,6.7h5l-0.3-2.4l-0.3-2.3l-0.4-2.6l-0.3-2.7l-0.3-2.5v-2.2l0.2-2.4l0.1-2.5l0.6-2.1l-0.2-2.2l0.8,0.4
				v-1.4l0.2-0.9l0.7-0.9l0.2-0.8l-0.3-0.8l0.4-0.2l0.5-4.4l0.5-2.6l-0.2-1.2l0.6-3.1l1-3l1.4-3.1v-1.3l0.5-1.6l0.6-1.5l0.5-1.1
				l0.7-1.4l1.2-1.1h0.8l1.1-1.4l0.9-1.4l1-1.5l1.5-1.9l1.9-2l0.8-1.8l0.8-2l0.6-1.6l1.1-2.2l0.4-1.5l-0.4-3.1l-0.6-3.2l-0.4-0.1
				l-0.4-0.2l-0.1-0.5l0.2-0.5l-1.4-3.3l-1.2-3.5l-0.6-3.7l-0.9-4.4l-0.5-1.9l1-1.3l0.8-2l0.1-1.5l0.7-1.9l1.6-1.8l-0.8,0.2v-0.6
				l1.3-0.9l0.3,0.9l0.6-1l1.7-0.4l1.5-0.7l-2,0.2l-2.5-0.1L246.4,9L245,9.2l-0.4-0.6l0.3-0.3l-2-0.2l-1.7-0.3l-1.5-0.7L239,6.8
				l-0.4,0.6L238,8.2l-1.8,0.6l-1.1,0.5l-1.1-0.7l-1.2-0.1L232,7.9l-1.2,0.3l-1.5,2.7l-1.6,1.1l-2.6,1.4l-1.8,0.8l-1.9,0.4l-0.7,1.9
				l-4.1,0.8l-2.1,1l-0.9,1.7l-0.9,1.4l-3,0.9l-2.4,0.2l-1.8-0.3l-1.4,0.7l-1.5-0.9l-1.3-0.1l-0.3,0.6l-0.2,1.2l-2,0.2l-2.1,0.7
				l-2.4-0.2l-0.5-3l-1.3-1l-2.1,1l-0.2,1.8l0.5,2.5l-1.4-0.7l-1.3-0.5l-0.3,0.9l-1.2-2l-0.3-0.6l-1.4,0.9l-1.5,1.4l-1.1,1.5l-0.8,1.5
				l-0.9-0.4l-0.8,0.8l-2-1.3l-1-0.9h-2.1l-1.4-0.7l-0.8,0.3l-2.1-1.1l-1.5,1.6l-0.7,0l-1.1,0.7l-0.9-0.1l-0.4-0.6l-0.1-0.5l-0.8-0.6
				l-0.9-1l-0.8-1.3l-0.5-0.5l-0.3-0.7l0-0.7l0.1-0.2l-0.9-1l-0.5-0.9l-0.7-0.5l-1.2,0.5l-0.8,0.3l-1.2,0h-0.8l-2.1,0l-0.9,1.3
				l-0.4,0.3l-1.7,0.6l-1.8,1.5l-0.8,1.3l-0.7,1l-0.9,0.8l-0.1,0.7l1.5,1.2l0.3,0.6l0.8,1.2l1.2,0.5l0.8,0.5l-0.5,1.4l-0.4,1.2l0.4,1.7
				l1.3,0.6l0.3,0.9l-0.4,0.8l-0.6,0.2l0.4,2.3l-1,1.5l0.9,0.8l0.3,0.8l1.8,1.7l6.2,0.5L159,55.5l0.8,2.9L148.2,76.4L148.2,76.4z"/>
		</a>

		<a id="SJ">
				<polygon class="department" title="Rio San Juan" fill="#A8AEB8" stroke-width="2" stroke="#FFF" points="142.7,221.4 141.5,223.5 147.5,226.1 156.2,229.3 168.8,221.8 173.3,224.2 174.9,223.3 
				175.3,224.6 179.1,226 182.3,228.6 184.7,227.5 186.1,227.3 186.4,229.7 187.8,231.3 190.9,233.3 193.1,233.5 193.8,234.3 
				193.8,235.3 194,236.1 193.3,236.4 194.9,237.2 194.9,237.5 196.1,237.5 197,237.7 198,237.5 198.8,237.9 199,238.6 200,238.6 
				201.5,238.8 202,239 202.4,238.3 203.5,238 203.7,238.6 204.1,237.5 204.6,237.4 205.4,238.2 205.5,238.6 206.9,239.5 
				207.4,239.7 207.6,240.3 208.2,240.9 209.4,241.1 209.5,241.6 209.5,241.5 210.1,241.5 210.9,241 212.1,241.2 213.1,241.4 
				213.8,240.7 214.6,240.2 215.4,239.7 216.3,239.9 217,239.1 218.3,238.8 219.2,238.7 220.3,239.7 219.4,238.6 220.5,237.8 
				222.1,238.2 223.4,237.9 224.7,236.6 224.7,235.3 224.5,233.7 224.5,232.1 224.1,231 223.9,230.3 223.3,229.7 223,229.4 
				221.7,229.4 221.2,229.4 220.6,229.2 218.2,226 216.6,223.7 213.8,223.9 212.7,223.9 212.4,224.4 211.2,223.5 210.9,222.2 
				210.7,221.9 211,220.1 210.2,220.5 209.3,220.5 208.1,221.5 207.1,220.9 206.7,221.4 205,221.9 204.2,222 203,221.6 202.3,220.4 
				202.3,219.5 201,220 199.6,219.4 198.8,219.6 197.4,219.1 196.2,218.6 194.1,215.6 192.9,214.2 189.8,212.6 188.1,212 
				186.8,211.4 186.3,210 186.6,208 186.2,207.3 184.5,206.7 182,205.4 179.5,203.5 176.6,203 175.4,201.9 175.2,198.9 174.8,197 
				175.2,194.9 175.8,193.6 176.9,192.2 176.7,191.1 176.2,190.1 175.3,188.9 175,188 175.5,185.7 175.4,185 174.6,184.9 172.8,180 
				171.3,179.8 169.6,179.7 168.8,179.2 167.9,179.5 166.6,179.2 165.3,179.5 164.4,179.9 162.9,179.8 160.8,180.3 159.4,181.5 
				158.4,182.1 158.1,183.2 157,183.5 156.3,183.6 155.8,184 154.8,184 154.2,184.3 153.7,185.2 153.5,185.4 153.5,186.1 
				153.1,186.8 152.1,187.3 151.3,187.8 150.9,188.4 150,189 148.9,188.8 148.3,189.1 147.7,189.5 147.2,190.1 146.7,190.6 
				146,191.2 146.5,191.7 147.1,192.2 147.5,193.2 147.9,194.3 148.6,194.7 148.6,195.2 149.6,195.9 150.4,196.6 151.4,197.7 
				152.6,198.5 153.1,199.3 153,199.6 153.7,199.5 154.3,199 155.3,199.5 155.4,199.7 154.2,199.7 153.6,200.2 154,200.5 
				154.7,201.6 155.1,202 155.4,202.1 155.7,201.8 156.6,201.7 156.8,202.8 156.7,203.6 157.1,205.3 156.9,205.9 157.7,206.7 
				158.7,207 159.2,207.5 159.2,208.3 158.6,208.6 158.4,209 158.9,209.4 159.4,208.9 162,210.2 162.9,213.4 163.5,213.8 
				162.9,216.1 163.2,218.3 163.1,219.5 164,220.9 163.3,221.9 164.2,222.4 164.3,223.2 163,222.6 162.7,222.5 161.8,223 162,223.7 
				161,224.1 160.7,224.7 160.1,224.1 157.7,224.4 156.8,224.9 156.1,224.8 154.7,223.6 152.3,224 151.5,223.5 151.5,223 
				151.3,222.5 150.5,222.5 149.9,222.5 149.8,223 148.8,223 148.5,222.6 147.9,222.9 147.5,222.2 146.2,222 145.4,221.9 145,222.1 
				144.1,222 143.2,221.5 142.7,221.5       "/>
		</a>
		
		<a id="LE">
				<polygon class="department" title="Leon" fill="#A8AEB8" stroke-width="2" stroke="#FFF" points="67.2,161.2 66.8,161.1 66.8,160.9 67.2,160.1 67.7,159.7 70,156.8 69.3,156.5 68.2,156 67.7,155.9 
				66.5,155.1 66,155 65.2,154.9 64.8,154.4 64.4,153.8 64.2,153.2 63.8,152.8 63.9,151.3 64,150.8 63.5,150.5 63.6,149.8 63.9,149.3 
				64.4,148.8 64.9,148.6 65.4,149.2 65.9,150 66.5,150.5 67.5,150.8 68,150.8 68.7,150.6 69.4,150.6 69.9,150.3 70.7,149.4 
				71.2,148.3 72.1,147.6 72.8,147.2 73.2,147 74.5,146.6 75.7,145.9 76.1,145.7 76.4,145.7 76.7,145.3 77.7,145.3 77.7,145.1 
				76.9,144.1 76.7,143.2 76.7,141.9 77.5,141 77.6,139.7 79.6,137.2 81.3,136.6 81.5,135.7 81.9,134.8 81.7,133.6 81.6,132.7 
				81.9,131.8 82.1,129.3 82,127.4 81.9,125.3 81.6,125.1 79.7,124.9 77.5,124.4 75.5,123.6 74,122.9 73.2,122 72.9,121 73.7,119.4 
				74.3,118.1 74.5,116.4 74.1,115.7 73.1,114.6 72.3,113.2 71.7,111.9 71,111.1 70.2,110.8 68.2,110.7 66.7,110.6 65.1,110.9 
				64,111.5 63.2,112.1 62.2,112.5 61.1,112.8 60.4,112.3 59,111.5 58,111.4 56.8,111.8 56.6,111.8 57.1,113 57.6,114 57.6,115.2 
				57.8,115.8 58.3,116.2 59.1,117.3 60.3,119.2 60.1,119.9 59.9,120.8 59.9,121.8 60.1,123.1 60.4,124.1 60.8,125.1 60.9,125.7 
				60.9,126.4 60.7,127 60.4,127.9 60,128.8 59.3,129.6 58.6,129.9 57.7,130.2 56.9,130.1 56.3,130.1 55.6,130.1 55,130.2 54.3,130.4 
				53.6,130.5 52.7,130.6 52.4,130.8 52.1,131.2 52.1,131.7 52.1,132.2 52.2,132.6 52.1,133 51.6,133.3 51.3,133.7 50.7,134 
				50.1,134.4 49.5,134.5 49,134.8 48.5,135.6 47.9,136.3 47.6,136.9 47,137.7 46.2,138.3 45.6,138.6 45.5,139 45.5,139.7 45.6,140.4 
				45.6,141.2 45.3,142.1 45.1,142.8 44.4,143.3 43.7,143.8 43.1,144.1 42.1,144.6 40.8,145 40.2,145.5 39.6,146.1 39,146.4 
				37.9,146.7 37.2,146.7 36.3,146.8 35.8,146.9 35.9,147.4 36.8,147.9 37.2,148.6 37.2,148.7 36.3,148.3 34.4,147.6 32.9,146.5 
				32.5,146.9 35.8,148.6 41.5,152.6 52.6,159.7 54.6,160.9 54.7,162 55.5,163.2 55.5,163.8 56.2,164.8 56.2,165.4 56.8,166.3 
				56.8,166.7 57.8,168.4 58.4,169.5 59.4,170.9 60.2,170.3 60.9,170.2 61.2,169.8 61.3,168.9 60.8,168.7 60.6,167.6 60.9,167.2 
				61.3,167.2 61,167.6 61.3,167.9 63.3,166.6 64.9,166.9 68.7,164.1 69,161.4 67.9,161.5 "/>
		</a>
		
		<a id="GR">
				<path class="department" title="Granada" fill="#A8AEB8" stroke-width="2" stroke="#FFF" d="M107.9,165.5l-1.3-0.7h-0.7l-0.6-0.2l-0.1-0.7l0.1-0.8l0.1-0.5l-0.2-0.2l-0.8-0.3l-1.4-0.7
				l-1-0.3l-0.1,1.2l-0.5,0.8l-1.3,0.5l-2.1,0.1l-0.9,0.6l-0.8,0.1l0.8,2.2l0.3,0.4l0.4,0.1l-0.4,0.2l0.2,0.6l0.8-0.3v0.4l-0.4,0.2
				l0.2,0.5l0.4,0.1l-0.3,2.6l-2.5,3.4l-0.2,0.3l0.4,0.4l0,0.7l0.3,0.4l-0.4,0.4l-1.3,0.3l-0.6,0l-0.2,0.1l-0.8,1.1l-0.5,1.7l-0.7,1.3
				l-0.3,0.4l-0.1,1l-0.1,0.3l0.5,1.8l-0.3,1.1l0.1,1l-0.3,0.5l-1.5,0.5l-0.1,0.1l-0.1,0.4l0.2,1.6l-0.2,1.1l0.2,0.6l1,1.5l1.4,0.3
				l1-0.7l0.8-0.2l1.2,0l0.4-0.3l0.3-1l0.7-0.6l0.8-0.1l0.8,0.4l0.5,0l0.5-0.5l1.4-0.2l1.5-0.6l0.5-0.2l-0.3-0.2l-0.2-0.4l-0.1-0.7
				h-0.4l-0.6-0.4l-0.2-1.1l0.3-0.9l0.7-0.5l0.4-0.1l0.6-0.9l-0.7-1.2l-0.1-0.1l0.6-0.4l-0.1-0.7l-0.4-1.2l-0.2-0.9l-1-1l-0.6-1
				l0.1-0.6l0.5-0.1l0.8,0.6l0.1-0.4l-0.5-0.6l-1.1-0.4l-0.2-0.1l-0.4-0.7l-0.2-0.9l0.5-2.2l1.1-3l1-1.8l0.7-0.8l0.6-1.1l0.4,0.3
				l0.5,0.7l0.5,0.2l0.6,0l0.6-0.5l0.7-0.6l0.7-0.5L107.9,165.5L107.9,165.5z"/>
		</a>
		
		<a id="ES">
				<path class="department" title="Esteli" fill="#A8AEB8" stroke-width="2" stroke="#FFF" d="M81.7,125.3l0.3-2.2v-0.7l0.6-0.8l3-1.3l2-0.4l0.7-1.5l0.8-1.4l-0.1-0.8l0.4-0.4l0.7-0.7
				l0.8-0.4l-0.2-1.3l-1-0.7l-1.7-0.7l-1.8-1.1l-1.2-1l-0.9-1.3l-0.3-0.6l-1-0.7l-0.4-1l1.4-2.1l-0.3-0.8l0.7-0.4l-0.2-0.7v-1.1
				l-0.2-1.6l-0.2-1.3l0.4-0.3l-0.2-0.8l0.3-0.3L84,96.6l0.6-0.8L84,94.3l-0.5-0.7l-3-0.6l-2.6,0.7l-3,0.7l-2.4,0.4l-3-1.1l-1.8-0.5
				l-1.2,0.5L66,94.5l-0.7,1.3l-1.5,2.7l-0.9,2l-0.7,1.1l-1.4,1l-1.8,2l-1.2,1.1l-1.1,0.8l-0.5,1.1l-0.4,0.7v1.4l0.2,1.3l0.5,1l1.3-0.7
				l1.4,0.3l1.4,1l0.3,0.1l2.4-0.6l1.4-1l1.9-0.5l1.8,0.1l1.7,0.1l0.7,0.3l1,1.1l0.8,1.7l1.3,1.6l0.6,1l-0.3,1.5l-0.3,1.1l-1,1.8
				l0.2,1.3l1.1,1l2,0.7l2.9,1.1L81.7,125.3L81.7,125.3z" />
		</a>
		
		<a id="NS">
				<path class="department" title="Nueva Segovia" fill="#A8AEB8" stroke-width="2" stroke="#FFF" d="M55.7,81.8l0.8-0.5l5.4,0.7l0.4,2.1l1.2,1.1l2.2,0.5l2.5-0.8l2.4-0.5l4.8,1.2l1.1,0.5l0.9-0.8
				l1.4,0.2l2.2-1.8l2.2-0.5l2.3,1.1l2.4-0.6l3,3l0.3,1.9l2.2,1.6l2.3-0.2l0.4-1.2l1.4,0.5l3,1.5l0.2,0.5h0.7l0.5,0.5l0.5-1.3l1.2-1.2
				l1.5,0.1l0.8-0.8l0.9,0.4l0.1-0.4l-0.6-0.6l1-1.2l-0.4-0.5l-0.5-0.2l0.5-1.2l-0.6-1.8l0.7-0.5v-2.2l1.5-2.9l-0.3-1l0.7-1.3l-0.5-1.1
				l1.5-2l-2.1-0.2l-2.8-2.8l-0.4-1.6l-1.4,0.3l-1.5-0.5l-5.8-5.3l0.9-3.5l-2.4-0.2l-3,0.9L89,60.4L88.4,61l0.9,1.3l-1.7,0.9l-1.2,0.3
				v1.5L85.2,66l-1.8,2.2l-2.5,2.5l-1,3.1l-2,1.6l-1.7-0.4l-1.5,0.5l-2.2-1l-2.5,0.2l-2.7-1.2l-1.8-0.1l-1.7,0.8l-1.4,0.1l-3,0.3
				l-2.6-0.4L54.9,75l0.2,1.7v1.9l-0.9,2V81L55.7,81.8L55.7,81.8z" />
		</a>

		<a id="MN">
				<path class="department" title="Managua" fill="#A8AEB8" stroke-width="2" stroke="#FFF" d="M105.3,159.7l1.3-1.2l-4.5-3.7l-1.5-1.4l0.6-1.5l1-1l-1.2-0.2l0.1-0.5l-1-0.6l-0.2-1l-1.2-0.9l-0.3-0.5
				l-0.1-1.2l-0.2-0.2l0.2-1.7l-1.9-1l-0.9,0l-2.5-1.2l-1.7-2.2l-1.2-0.5l-0.8,0.3l-0.5,0l-1.7-1l-0.6-0.5l-0.7-0.6l-1.5,0l-0.8,0.2
				l-0.8-0.4l-1-0.3l-0.8,0.3l-0.9,0.3l-1.8,1.8l-0.4,0.6l-0.1,1.2l-0.7,0.9l-0.2,0.9l0.1,1.1l0.5,1l0.5,0.4l-0.2,0.4h-0.9h-0.1h0
				L77,146l0.2,0.1l0.5-0.2l0.7-0.9l0.6-0.6l1,0.2l0.6-0.2l0.5,0.3l0.4,0.5l0.5,2.2l0,0.6l-0.3,1l0.5,0.1l1.6,1l0.7,1.8l1,3.5
				l-0.1,0.4l0,0.6l0.8,0.1l0.3-0.4l0.6-0.5l0.4-0.5l0.1-0.5l0.8-0.4l0.5-1l0.6-0.2l0.6,0.4l0.5,0l0.6,0l0,0.5l0.2,1.5l0,0.6
				l0.2,0.7l-0.1,0.5l-0.1,0.5l-0.1,0.5l-0.2,0.5l0,0.6l-0.2,0.4l-0.1,0.9l-0.1,0.7l-0.5,0.6l-1.8,0.2l-1.7,0.1l-1.4,0.6l-1.7,0.1
				l-0.8,0.1l-0.7-0.3l-0.7-0.1l-0.9,0l-0.5-0.2l-0.4,0.2l-0.6-0.2l-0.1-0.8l0.2-0.5l0.6-0.3l0.6-0.2l0.5-0.3l0.2-0.7l-0.1-0.6
				l-0.1-1.2l-0.6-1.5l-0.5-0.3l-0.3-0.5l-0.5,0l-0.7,0.1l-0.6-0.1l-0.6,0.4l-1.3,0.5l-0.5,0.3l-0.4,0.5l-0.7,0.5l0.6-0.1l-0.2,0.6
				l-0.5,0.3l-0.9-0.3l-0.8-0.7l-1.4-0.6l-1-0.4l-0.1,0.1l-1.2,1.1l-0.8,1.2l-0.2,0.8l-0.6,0.1l-0.1,0.5l-0.3,0.5l0.3,0.5h0.5
				l0.5,0.2l1.1-0.2l-0.3,2.1l0,0.4l-1.8,1.2l-1.6,1.4l-0.2,0.2l-1.8-0.3l-1.3,0.8l-0.7,0.4l-0.1-0.2l0.4-0.3l-0.5,0l-0.4,0.3l0.2,1
				l0.5,0.3l0.1,1l-0.7,0.5l-0.5,0l-0.3,0.5l-0.5,0.1l1.2,1.5l1.2,1.4l1.1,1.3l0.3,1.2l0.2,0.8l1.8,1.6l1.7,1.9l1,1l0.7,1.4l0.2,0.8
				l0.9,0.7l3.5,2.5l0.2-0.4l0.5,0l-0.3-0.8l-0.2-0.8l-0.2-0.3l0.9-1.1l1.5-0.7l1.4-1.1c0,0-0.2-0.8-0.1-1s3.5-5,3.5-5l2.6-3.5
				l1.7,1.5l2.4-0.8l1-2l-0.4-0.8l-1-0.7l-0.3-1l1.2-1.7l1.8-0.5l1.4-1.7l0.8-0.2l2,0.2l1.3-0.7l1.4,0.5l1.4-0.2l0.7-0.6h1.8
				l1.4-0.4l0.7-0.8l0.1-1.4l0.9,0.2l2,1.2l0.3-0.1l-0.1-0.7l0.4-0.3l0.1-0.4l-0.4-0.4L105.3,159.7z"/>
		</a>
	</svg>
